<svg width="175" height="175" viewBox="0 0 175 175" fill="none" xmlns="http://www.w3.org/2000/svg">
<path d="M4.05312 94.1509C5.26267 95.1385 6.67311 95.8503 8.18606 96.2368C9.69902 96.6233 11.2781 96.675 12.8131 96.3885C16.3893 95.6741 20.0801 95.7692 23.6148 96.6666C27.1495 97.5641 30.4385 99.2413 33.2408 101.575C36.043 103.909 38.2874 106.841 39.8094 110.155C41.3313 113.469 42.0923 117.082 42.0365 120.728C41.9874 123.475 43.0198 126.132 44.9112 128.125C46.8027 130.118 49.4016 131.288 52.1477 131.383C55.792 131.518 59.36 132.467 62.5899 134.16C65.8198 135.854 68.6298 138.248 70.8139 141.169C72.9979 144.09 74.5007 147.462 75.212 151.039C75.9232 154.616 75.825 158.306 74.9244 161.84C74.545 163.361 74.5115 164.947 74.8266 166.482C75.1416 168.017 75.7971 169.462 76.7447 170.71C77.6923 171.958 78.9079 172.978 80.302 173.694C81.696 174.409 83.2329 174.803 84.7994 174.846L85.3229 174.86C102.602 175.312 119.626 170.624 134.238 161.389C148.849 152.154 160.39 138.789 167.396 122.988C174.403 107.186 176.56 89.6606 173.594 72.6319C170.628 55.6031 162.673 39.8384 150.737 27.3361C138.802 14.8338 123.422 6.15703 106.549 2.40562C89.6761 -1.34578 72.0691 -0.00284182 55.9602 6.26419C39.8513 12.5312 25.9658 23.4401 16.0641 37.608C6.16241 51.7759 0.690319 68.5648 0.34152 85.8463C0.308496 87.4188 0.624207 88.979 1.26596 90.4149C1.9077 91.8508 2.85955 93.1267 4.05312 94.1509ZM32.381 29.3212C64.0749 -0.67016 114.603 0.30373 145.044 31.4855C156.215 42.9164 163.72 57.4206 166.599 73.1416C169.478 88.8625 167.601 105.085 161.207 119.733C154.813 134.381 144.193 146.787 130.707 155.364C117.221 163.942 101.483 168.299 85.5057 167.88L84.9822 167.866C84.4648 167.838 83.9593 167.7 83.499 167.463C83.0387 167.225 82.634 166.892 82.3116 166.487C81.9948 166.065 81.775 165.579 81.6677 165.063C81.5605 164.548 81.5685 164.014 81.6913 163.502C82.9952 158.362 82.9812 152.977 81.6504 147.844C80.3196 142.712 77.7151 137.998 74.0782 134.14C68.4205 128.171 60.6377 124.673 52.4177 124.405C51.4921 124.381 50.614 123.99 49.9766 123.318C49.3392 122.647 48.9948 121.749 49.019 120.824C49.1816 112.601 46.0958 104.646 40.431 98.6833C36.7683 94.8494 32.1974 92.0018 27.1416 90.4042C22.0858 88.8066 16.7086 88.5107 11.508 89.5439C10.9898 89.6397 10.4568 89.6198 9.9471 89.4857C9.43743 89.3517 8.96367 89.1066 8.55968 88.7682C8.17149 88.4251 7.86044 88.0035 7.64705 87.5314C7.43368 87.0593 7.32279 86.5473 7.32172 86.0291C7.49796 75.382 9.80631 64.8782 14.1104 55.1382C18.4145 45.3982 24.627 36.6197 32.381 29.3212ZM59.0787 53.4199C58.1093 52.4082 57.4624 51.1312 57.2202 49.7512C56.9779 48.3711 57.1512 46.9501 57.718 45.6687C58.2849 44.3873 59.2197 43.3033 60.4038 42.5541C61.5879 41.805 62.9679 41.4247 64.3686 41.4614C65.7693 41.498 67.1275 41.9501 68.2708 42.7602C69.4141 43.5702 70.2909 44.7017 70.7899 46.011C71.2889 47.3204 71.3876 48.7484 71.0735 50.1139C70.7593 51.4794 70.0465 52.7208 69.0255 53.6804C67.6678 54.9565 65.8612 55.645 63.9985 55.5963C62.1359 55.5475 60.3678 54.7654 59.0787 53.4199ZM114.737 61.8624C113.768 60.8507 113.121 59.5737 112.879 58.1936C112.637 56.8136 112.81 55.3926 113.377 54.1112C113.944 52.8298 114.878 51.7457 116.063 50.9966C117.247 50.2475 118.627 49.8671 120.027 49.9038C121.428 49.9405 122.786 50.3926 123.93 51.2026C125.073 52.0127 125.95 53.1442 126.449 54.4535C126.948 55.7628 127.046 57.1909 126.732 58.5564C126.418 59.9219 125.705 61.1633 124.684 62.1229C123.327 63.399 121.52 64.0875 119.657 64.0387C117.795 63.9899 116.027 63.2078 114.737 61.8624ZM120.699 100.96C121.71 99.9904 122.987 99.3435 124.367 99.1013C125.748 98.859 127.168 99.0323 128.45 99.5991C129.731 100.166 130.815 101.101 131.564 102.285C132.314 103.469 132.694 104.849 132.657 106.25C132.621 107.65 132.169 109.009 131.358 110.152C130.548 111.295 129.417 112.172 128.108 112.671C126.798 113.17 125.37 113.269 124.005 112.955C122.639 112.64 121.398 111.928 120.438 110.907C119.162 109.549 118.474 107.742 118.522 105.88C118.571 104.017 119.353 102.249 120.699 100.96ZM75.4325 95.7581C74.4631 94.7464 73.8162 93.4694 73.574 92.0893C73.3317 90.7092 73.505 89.2883 74.0718 88.0069C74.6387 86.7255 75.5735 85.6414 76.7576 84.8923C77.9417 84.1432 79.3217 83.7628 80.7224 83.7995C82.1231 83.8362 83.4813 84.2882 84.6246 85.0983C85.7679 85.9084 86.6447 87.0399 87.1437 88.3492C87.6427 89.6585 87.7414 91.0866 87.4272 92.4521C87.1131 93.8176 86.4003 95.0589 85.3793 96.0186C84.0215 97.2947 82.215 97.9832 80.3523 97.9344C78.4897 97.8856 76.7216 97.1035 75.4325 95.7581Z" fill="#CF5D07" fill-opacity="0.47"/>
</svg>
