<svg width="30" height="30" viewBox="0 0 30 30" fill="none" xmlns="http://www.w3.org/2000/svg">
<path d="M5.08331 15H3.66665V26.3333C3.66665 27.0848 3.96516 27.8055 4.49651 28.3368C5.02786 28.8682 5.74853 29.1667 6.49998 29.1667H13.5833V15H5.08331ZM23.5 15H16.4166V29.1667H23.5C24.2514 29.1667 24.9721 28.8682 25.5035 28.3368C26.0348 27.8055 26.3333 27.0848 26.3333 26.3333V15H23.5ZM24.6206 7.91668C24.8283 7.22787 24.9282 6.51105 24.9166 5.79168C24.9166 3.05751 22.6925 0.833344 19.9583 0.833344C17.6605 0.833344 16.1262 2.93284 15.136 5.20376C14.1599 3.05751 12.5477 0.833344 10.0416 0.833344C7.30748 0.833344 5.08331 3.05751 5.08331 5.79168C5.08331 6.63601 5.19523 7.33443 5.3794 7.91668H0.833313V13.5833H13.5833V10.75H16.4166V13.5833H29.1666V7.91668H24.6206ZM7.91665 5.79168C7.91665 4.62009 8.87006 3.66668 10.0416 3.66668C11.2996 3.66668 12.4698 5.82709 13.1555 7.91668H9.33331C8.80348 7.91668 7.91665 7.91668 7.91665 5.79168ZM19.9583 3.66668C21.1299 3.66668 22.0833 4.62009 22.0833 5.79168C22.0833 7.91668 21.1965 7.91668 20.6666 7.91668H17.1576C17.8801 5.68401 18.9298 3.66668 19.9583 3.66668Z" fill="#DD4433"/>
</svg>
